HIERARCHY
ROOT Hips
{
	OFFSET 0.000000 100.481300 0.000000
	CHANNELS 6 Xposition Yposition Zposition Xrotation Yrotation Zrotation
	JOINT Spine
	{
		OFFSET -0.279200 12.230698 -2.892100
		CHANNELS 3 Xrotation Yrotation Zrotation
		JOINT Spine1
		{
			OFFSET -0.325700 14.269203 -3.374200
			CHANNELS 3 Xrotation Yrotation Zrotation
			JOINT Spine2
			{
				OFFSET -0.372300 16.307602 -0.352600
				CHANNELS 3 Xrotation Yrotation Zrotation
				JOINT Neck
				{
					OFFSET -0.418800 17.814194 8.416900
					CHANNELS 3 Xrotation Yrotation Zrotation
					JOINT Head
					{
						OFFSET 0.000000 7.031097 3.806800
						CHANNELS 3 Xrotation Yrotation Zrotation
						JOINT HeadTop_End
						{
							OFFSET 0.000000 24.646606 12.978600
							CHANNELS 3 Xrotation Yrotation Zrotation
							End Site
							{
								OFFSET 0.000000 27.854965 0.000000
							}
						}
					}
				}
				JOINT LeftShoulder
				{
					OFFSET 16.952999 14.495407 -7.737500
					CHANNELS 3 Xrotation Yrotation Zrotation
					JOINT LeftArm
					{
						OFFSET 9.308998 -2.777710 0.208600
						CHANNELS 3 Xrotation Yrotation Zrotation
						JOINT LeftForeArm
						{
							OFFSET 29.972298 0.000000 0.000000
							CHANNELS 3 Xrotation Yrotation Zrotation
							JOINT LeftHand
							{
								OFFSET 26.026505 0.000000 0.000000
								CHANNELS 3 Xrotation Yrotation Zrotation
								JOINT LeftHandThumb1
								{
									OFFSET 12.240501 -7.147949 9.207150
									CHANNELS 3 Xrotation Yrotation Zrotation
									JOINT LeftHandThumb2
									{
										OFFSET 4.138618 -2.389435 2.389433
										CHANNELS 3 Xrotation Yrotation Zrotation
										JOINT LeftHandThumb3
										{
											OFFSET 2.726913 -1.574387 1.574386
											CHANNELS 3 Xrotation Yrotation Zrotation
											JOINT LeftHandThumb4
											{
												OFFSET 3.941010 -2.275345 2.275342
												CHANNELS 3 Xrotation Yrotation Zrotation
												End Site
												{
													OFFSET -0.005798 5.087799 0.009903
												}
											}
										}
									}
								}
								JOINT LeftHandIndex1
								{
									OFFSET 24.424698 -1.985611 5.953459
									CHANNELS 3 Xrotation Yrotation Zrotation
									JOINT LeftHandIndex2
									{
										OFFSET 6.426697 0.000000 0.000000
										CHANNELS 3 Xrotation Yrotation Zrotation
										JOINT LeftHandIndex3
										{
											OFFSET 5.337898 0.000000 0.000000
											CHANNELS 3 Xrotation Yrotation Zrotation
											JOINT LeftHandIndex4
											{
												OFFSET 4.409401 0.000000 0.000000
												CHANNELS 3 Xrotation Yrotation Zrotation
												End Site
												{
													OFFSET 0.000000 4.409363 0.014373
												}
											}
										}
									}
								}
								JOINT LeftHandMiddle1
								{
									OFFSET 23.810104 0.000000 0.000000
									CHANNELS 3 Xrotation Yrotation Zrotation
									JOINT LeftHandMiddle2
									{
										OFFSET 7.176498 0.000000 0.000000
										CHANNELS 3 Xrotation Yrotation Zrotation
										JOINT LeftHandMiddle3
										{
											OFFSET 6.774902 0.000000 0.000000
											CHANNELS 3 Xrotation Yrotation Zrotation
											JOINT LeftHandMiddle4
											{
												OFFSET 5.403328 0.000000 0.000000
												CHANNELS 3 Xrotation Yrotation Zrotation
												End Site
												{
													OFFSET -0.027702 5.403244 0.017414
												}
											}
										}
									}
								}
								JOINT LeftHandRing1
								{
									OFFSET 22.908401 -0.839279 -6.020567
									CHANNELS 3 Xrotation Yrotation Zrotation
									JOINT LeftHandRing2
									{
										OFFSET 6.337502 0.000000 0.000000
										CHANNELS 3 Xrotation Yrotation Zrotation
										JOINT LeftHandRing3
										{
											OFFSET 5.779297 0.000000 0.000000
											CHANNELS 3 Xrotation Yrotation Zrotation
											JOINT LeftHandRing4
											{
												OFFSET 4.965698 0.000000 0.000000
												CHANNELS 3 Xrotation Yrotation Zrotation
												End Site
												{
													OFFSET 0.000000 4.965668 0.016186
												}
											}
										}
									}
								}
								JOINT LeftHandPinky1
								{
									OFFSET 20.037003 -1.530319 -10.950146
									CHANNELS 3 Xrotation Yrotation Zrotation
									JOINT LeftHandPinky2
									{
										OFFSET 5.254700 0.000000 0.000000
										CHANNELS 3 Xrotation Yrotation Zrotation
										JOINT LeftHandPinky3
										{
											OFFSET 4.810204 0.000000 0.000000
											CHANNELS 3 Xrotation Yrotation Zrotation
											JOINT LeftHandPinky4
											{
												OFFSET 3.647202 0.000000 0.000000
												CHANNELS 3 Xrotation Yrotation Zrotation
												End Site
												{
													OFFSET 0.000000 3.647186 0.011889
												}
											}
										}
									}
								}
							}
						}
					}
				}
				JOINT RightShoulder
				{
					OFFSET -15.141001 14.495407 -7.737500
					CHANNELS 3 Xrotation Yrotation Zrotation
					JOINT RightArm
					{
						OFFSET -9.308998 -2.777710 0.208500
						CHANNELS 3 Xrotation Yrotation Zrotation
						JOINT RightForeArm
						{
							OFFSET -29.972300 0.000000 0.000000
							CHANNELS 3 Xrotation Yrotation Zrotation
							JOINT RightHand
							{
								OFFSET -26.026505 0.000000 0.000000
								CHANNELS 3 Xrotation Yrotation Zrotation
								JOINT RightHandThumb1
								{
									OFFSET -12.240601 -7.148026 9.207092
									CHANNELS 3 Xrotation Yrotation Zrotation
									JOINT RightHandThumb2
									{
										OFFSET -4.138618 -2.389435 2.389433
										CHANNELS 3 Xrotation Yrotation Zrotation
										JOINT RightHandThumb3
										{
											OFFSET -2.726974 -1.574417 1.574421
											CHANNELS 3 Xrotation Yrotation Zrotation
											JOINT RightHandThumb4
											{
												OFFSET -3.941010 -2.275345 2.275343
												CHANNELS 3 Xrotation Yrotation Zrotation
												End Site
												{
													OFFSET 0.005814 5.087799 0.009927
												}
											}
										}
									}
								}
								JOINT RightHandIndex1
								{
									OFFSET -24.424698 -1.985657 5.953444
									CHANNELS 3 Xrotation Yrotation Zrotation
									JOINT RightHandIndex2
									{
										OFFSET -6.426697 0.000000 0.000000
										CHANNELS 3 Xrotation Yrotation Zrotation
										JOINT RightHandIndex3
										{
											OFFSET -5.337898 0.000000 0.000000
											CHANNELS 3 Xrotation Yrotation Zrotation
											JOINT RightHandIndex4
											{
												OFFSET -4.409401 0.000000 0.000000
												CHANNELS 3 Xrotation Yrotation Zrotation
												End Site
												{
													OFFSET 0.000000 4.409363 0.014408
												}
											}
										}
									}
								}
								JOINT RightHandMiddle1
								{
									OFFSET -23.810097 0.000000 0.000000
									CHANNELS 3 Xrotation Yrotation Zrotation
									JOINT RightHandMiddle2
									{
										OFFSET -7.176498 0.000000 0.000000
										CHANNELS 3 Xrotation Yrotation Zrotation
										JOINT RightHandMiddle3
										{
											OFFSET -6.774902 0.000000 0.000000
											CHANNELS 3 Xrotation Yrotation Zrotation
											JOINT RightHandMiddle4
											{
												OFFSET -5.403328 0.000000 0.000000
												CHANNELS 3 Xrotation Yrotation Zrotation
												End Site
												{
													OFFSET 0.027702 5.403244 0.017457
												}
											}
										}
									}
								}
								JOINT RightHandRing1
								{
									OFFSET -22.908302 -0.839325 -6.020576
									CHANNELS 3 Xrotation Yrotation Zrotation
									JOINT RightHandRing2
									{
										OFFSET -6.337502 0.000000 0.000000
										CHANNELS 3 Xrotation Yrotation Zrotation
										JOINT RightHandRing3
										{
											OFFSET -5.779297 0.000000 0.000000
											CHANNELS 3 Xrotation Yrotation Zrotation
											JOINT RightHandRing4
											{
												OFFSET -4.965698 0.000000 0.000000
												CHANNELS 3 Xrotation Yrotation Zrotation
												End Site
												{
													OFFSET 0.000000 4.965668 0.016226
												}
											}
										}
									}
								}
								JOINT RightHandPinky1
								{
									OFFSET -20.037003 -1.530334 -10.950259
									CHANNELS 3 Xrotation Yrotation Zrotation
									JOINT RightHandPinky2
									{
										OFFSET -5.254700 0.000000 0.000000
										CHANNELS 3 Xrotation Yrotation Zrotation
										JOINT RightHandPinky3
										{
											OFFSET -4.810204 0.000000 0.000000
											CHANNELS 3 Xrotation Yrotation Zrotation
											JOINT RightHandPinky4
											{
												OFFSET -3.647202 0.000000 0.000000
												CHANNELS 3 Xrotation Yrotation Zrotation
												End Site
												{
													OFFSET 0.000000 3.647186 0.011917
												}
											}
										}
									}
								}
							}
						}
					}
				}
			}
		}
	}
	JOINT LeftUpLeg
	{
		OFFSET 15.427100 -6.655098 0.678600
		CHANNELS 3 Xrotation Yrotation Zrotation
		JOINT LeftLeg
		{
			OFFSET 4.081073 -39.591068 13.024000
			CHANNELS 3 Xrotation Yrotation Zrotation
			JOINT LeftFoot
			{
				OFFSET -4.081074 -37.707932 -15.979700
				CHANNELS 3 Xrotation Yrotation Zrotation
				JOINT LeftToeBase
				{
					OFFSET 5.346399 -15.068900 20.645000
					CHANNELS 3 Xrotation Yrotation Zrotation
					JOINT LeftToe_End
					{
						OFFSET 2.754700 0.931300 11.300900
						CHANNELS 3 Xrotation Yrotation Zrotation
						End Site
						{
							OFFSET 0.000000 11.669021 0.000000
						}
					}
				}
			}
		}
	}
	JOINT RightUpLeg
	{
		OFFSET -15.569500 -6.655098 0.678600
		CHANNELS 3 Xrotation Yrotation Zrotation
		JOINT RightLeg
		{
			OFFSET -4.081825 -39.591045 13.023800
			CHANNELS 3 Xrotation Yrotation Zrotation
			JOINT RightFoot
			{
				OFFSET 4.081824 -37.707954 -15.979600
				CHANNELS 3 Xrotation Yrotation Zrotation
				JOINT RightToeBase
				{
					OFFSET -5.346400 -15.068900 20.645000
					CHANNELS 3 Xrotation Yrotation Zrotation
					JOINT RightToe_End
					{
						OFFSET -2.754700 0.931300 11.300900
						CHANNELS 3 Xrotation Yrotation Zrotation
						End Site
						{
							OFFSET 0.000000 11.669021 0.000000
						}
					}
				}
			}
		}
	}
}
MOTION
Frames: 5
Frame Time: 0.033333
0.278091 93.368195 1.687608 -3.106559 -1.799699 0.701368 -1.682279 -0.427299 -0.724005 -1.379792 -0.893469 -0.329191 -1.383209 -0.899537 -0.294171 -5.560631 0.160252 -0.394068 10.568978 0.152541 -2.336142 -0.000000 -0.000000 0.000000 -0.553140 12.509623 -9.768873 22.475221 -51.135994 -36.086065 0.000006 -110.606144 0.000004 -6.184365 -10.939885 45.042833 -9.062613 0.027353 19.620446 3.939049 7.948709 0.746797 -0.579475 1.575013 2.538733 0.000001 -0.000001 -0.000000 0.000000 -0.000000 0.000000 -0.000002 0.000001 -0.000028 -0.000003 0.000005 -0.000021 -0.000000 -0.000003 -0.000000 -0.000001 -0.001921 0.015979 0.000007 0.001915 -0.015994 0.000003 0.000007 -0.000016 0.000000 0.000002 -0.000001 0.000000 -0.000000 -0.000001 -0.000001 -0.000000 -0.000028 0.000003 0.000008 -0.000013 -0.000000 -0.000001 0.000000 -0.018081 4.054259 0.511062 -0.018093 -4.054257 -0.511102 0.000004 0.000009 -0.000015 -0.000000 -0.000001 0.000001 1.365842 1.819744 8.416332 12.529565 53.503105 45.348836 -0.000027 105.961519 0.000035 -4.684247 8.718325 -49.843876 -5.175638 3.531309 -28.920394 4.637199 -8.634121 -0.225412 -1.273753 0.137309 -2.094866 -0.000000 0.000002 -0.000002 -0.000000 0.000002 -0.000000 0.000000 -0.000008 0.000001 -0.000002 -0.000008 0.000008 -0.000001 -0.000001 -0.000000 -0.000000 0.000002 0.000001 0.000000 -0.000008 0.000002 -0.000003 -0.000010 0.000014 -0.000000 -0.000001 0.000000 0.000001 0.000004 -0.000000 0.000000 -0.000010 0.000003 -0.000002 -0.000006 0.000009 0.000001 -0.000000 -0.000001 -0.000000 0.000002 0.000000 0.000006 -0.000010 0.000044 0.000004 0.000005 0.000003 -0.000001 -0.000001 -0.000001 0.157333 1.293098 1.454330 20.808926 8.195942 2.548629 -16.974502 1.591077 -5.849046 -1.296844 -0.000006 -0.000003 0.000000 -0.000000 -0.000000 -1.703514 5.112628 1.356166 21.844260 -9.594909 -3.135465 -16.523638 -7.636399 4.128749 -0.000020 -0.000002 0.000004 0.000000 0.000000 -0.000000 
0.291046 93.420921 1.677853 -3.038143 -1.852135 0.679363 -1.594233 -0.411747 -0.716394 -1.218630 -0.863695 -0.320514 -1.221988 -0.870099 -0.288237 -5.636957 0.174054 -0.454595 10.628734 0.102935 -2.225908 0.000000 0.000000 0.000000 -0.553138 12.509622 -9.768873 22.475226 -51.135997 -36.086065 0.000002 -110.606137 -0.000001 -6.184367 -10.939885 45.042837 -9.062613 0.027355 19.620446 3.939050 7.948710 0.746798 -0.579475 1.575009 2.538729 0.000000 0.000002 -0.000001 0.000000 -0.000003 -0.000000 -0.000002 0.000000 -0.000027 -0.000003 0.000009 -0.000021 -0.000000 -0.000000 -0.000000 -0.000001 -0.001920 0.015981 0.000007 0.001914 -0.015994 0.000003 0.000007 -0.000017 0.000000 -0.000003 -0.000001 0.000000 -0.000003 -0.000000 -0.000001 -0.000003 -0.000027 0.000004 0.000017 -0.000012 0.000001 0.000000 -0.000001 -0.018082 4.054259 0.511062 -0.018093 -4.054256 -0.511101 0.000004 0.000008 -0.000017 0.000000 0.000002 -0.000000 1.365842 1.819744 8.416335 12.529562 53.503102 45.348836 -0.000026 105.961519 0.000023 -4.684246 8.718324 -49.843876 -5.175638 3.531306 -28.920394 4.637202 -8.634125 -0.225411 -1.273754 0.137311 -2.094864 0.000001 0.000003 0.000001 -0.000000 -0.000003 -0.000001 0.000000 -0.000009 0.000003 -0.000002 -0.000006 0.000009 -0.000000 0.000002 -0.000001 -0.000000 -0.000003 -0.000001 0.000001 -0.000011 0.000002 -0.000003 -0.000007 0.000015 -0.000001 -0.000004 -0.000001 0.000000 0.000001 -0.000001 0.000001 -0.000012 0.000002 -0.000002 -0.000008 0.000009 0.000000 -0.000000 -0.000000 -0.000000 -0.000003 -0.000001 0.000005 -0.000013 0.000043 0.000004 0.000007 0.000004 0.000001 -0.000003 -0.000000 0.136780 1.341246 1.499609 20.690074 8.157390 2.493549 -16.883458 1.583106 -5.829513 -1.290735 -0.000003 -0.000001 0.000000 0.000000 -0.000000 -1.733461 5.119290 1.358064 21.703341 -9.586236 -3.129105 -16.424909 -7.601706 4.121504 -0.000020 -0.000001 0.000004 -0.000000 0.000001 -0.000000 
0.306271 93.472221 1.653534 -2.964515 -1.895338 0.648500 -1.501707 -0.403884 -0.704500 -1.053124 -0.847384 -0.296692 -1.056301 -0.853595 -0.266813 -5.709643 0.197564 -0.527544 10.676994 0.078648 -2.132167 -0.000000 0.000000 0.000000 -0.553139 12.509624 -9.768873 22.475222 -51.135997 -36.086061 -0.000004 -110.606144 -0.000001 -6.184364 -10.939884 45.042830 -9.062614 0.027358 19.620448 3.939048 7.948713 0.746796 -0.579477 1.575009 2.538730 -0.000000 -0.000003 -0.000001 -0.000000 0.000000 0.000000 -0.000001 0.000003 -0.000027 -0.000003 0.000009 -0.000022 0.000000 -0.000002 -0.000000 -0.000002 -0.001919 0.015980 0.000008 0.001916 -0.015995 0.000003 0.000012 -0.000016 -0.000000 0.000002 -0.000002 -0.000000 0.000000 0.000000 -0.000002 0.000000 -0.000027 0.000003 0.000010 -0.000013 0.000000 0.000003 0.000000 -0.018082 4.054262 0.511062 -0.018094 -4.054253 -0.511102 0.000005 0.000006 -0.000016 0.000001 -0.000004 -0.000001 1.365843 1.819744 8.416334 12.529562 53.503105 45.348843 -0.000018 105.961519 0.000026 -4.684246 8.718328 -49.843879 -5.175638 3.531307 -28.920394 4.637201 -8.634121 -0.225412 -1.273751 0.137312 -2.094865 0.000002 0.000003 -0.000003 0.000000 0.000001 -0.000001 -0.000000 -0.000009 0.000002 -0.000002 -0.000006 0.000009 0.000000 0.000000 -0.000000 0.000000 0.000001 -0.000000 0.000000 -0.000013 0.000003 -0.000004 -0.000007 0.000015 0.000000 -0.000001 0.000000 0.000000 0.000003 -0.000001 0.000000 -0.000017 0.000002 -0.000001 -0.000006 0.000009 0.000000 0.000000 -0.000002 0.000000 0.000001 -0.000001 0.000005 -0.000011 0.000043 0.000004 0.000008 0.000004 0.000000 -0.000001 0.000000 0.087667 1.386631 1.547606 20.590495 8.118706 2.447094 -16.795563 1.571655 -5.798773 -1.289145 -0.000004 -0.000000 0.000000 -0.000001 -0.000000 -1.779413 5.124397 1.362301 21.563674 -9.577481 -3.108538 -16.316868 -7.569842 4.107383 -0.000020 -0.000002 0.000004 -0.000000 0.000000 -0.000000 
0.330377 93.524734 1.582595 -2.894182 -1.926585 0.588713 -1.396724 -0.421326 -0.675196 -0.879432 -0.873218 -0.224020 -0.882063 -0.877522 -0.195430 -5.755101 0.257622 -0.645074 10.720409 0.153040 -2.088187 0.000000 -0.000001 -0.000000 -0.553140 12.509623 -9.768872 22.475222 -51.135997 -36.086065 0.000001 -110.606137 -0.000001 -6.184365 -10.939886 45.042833 -9.062613 0.027359 19.620448 3.939049 7.948713 0.746797 -0.579476 1.575010 2.538730 -0.000000 -0.000002 0.000000 0.000000 0.000002 -0.000001 -0.000002 -0.000000 -0.000029 -0.000003 0.000005 -0.000022 -0.000000 0.000001 0.000000 -0.000002 -0.001920 0.015980 0.000008 0.001920 -0.015995 0.000003 0.000010 -0.000018 -0.000000 -0.000000 -0.000001 0.000000 0.000002 -0.000001 -0.000001 0.000002 -0.000028 0.000003 0.000007 -0.000014 -0.000000 0.000000 -0.000000 -0.018082 4.054261 0.511061 -0.018093 -4.054253 -0.511102 0.000004 0.000007 -0.000017 -0.000000 -0.000001 -0.000000 1.365842 1.819744 8.416334 12.529564 53.503102 45.348836 -0.000030 105.961519 0.000029 -4.684246 8.718325 -49.843879 -5.175639 3.531304 -28.920394 4.637201 -8.634121 -0.225414 -1.273752 0.137308 -2.094863 -0.000001 0.000003 -0.000000 -0.000000 -0.000001 -0.000000 0.000000 -0.000012 0.000002 -0.000002 -0.000011 0.000007 -0.000001 -0.000001 -0.000001 -0.000000 -0.000000 0.000001 -0.000000 -0.000009 0.000002 -0.000003 -0.000003 0.000014 -0.000001 0.000000 -0.000001 0.000001 0.000001 0.000000 -0.000000 -0.000010 0.000004 -0.000002 -0.000005 0.000009 -0.000000 0.000001 -0.000000 -0.000000 -0.000001 0.000000 0.000006 -0.000011 0.000044 0.000003 0.000005 0.000003 -0.000000 0.000001 -0.000000 -0.045201 1.442601 1.598885 20.573846 8.079042 2.437419 -16.691732 1.548727 -5.732466 -1.316080 0.000011 -0.000001 -0.000000 -0.000000 -0.000000 -1.851457 5.126644 1.370774 21.412867 -9.567449 -3.046281 -16.169568 -7.530568 4.074589 -0.000020 -0.000003 0.000004 0.000000 -0.000001 -0.000000 
0.355107 93.581665 1.482571 -2.864564 -1.959280 0.532010 -1.292525 -0.455177 -0.635362 -0.711506 -0.926835 -0.128708 -0.713415 -0.928740 -0.100674 -5.780632 0.345900 -0.794956 10.822990 0.303725 -2.081293 -0.000000 0.000000 -0.000000 -0.553139 12.509624 -9.768873 22.475226 -51.135997 -36.086058 0.000006 -110.606137 -0.000001 -6.184362 -10.939887 45.042833 -9.062613 0.027356 19.620442 3.939047 7.948711 0.746798 -0.579475 1.575009 2.538730 0.000001 0.000003 -0.000001 -0.000000 0.000001 -0.000001 -0.000001 0.000002 -0.000028 -0.000003 0.000007 -0.000022 -0.000001 -0.000000 0.000000 -0.000002 -0.001923 0.015980 0.000007 0.001916 -0.015994 0.000003 0.000010 -0.000018 -0.000000 0.000003 -0.000001 -0.000000 0.000001 0.000000 -0.000001 0.000001 -0.000028 0.000003 0.000013 -0.000013 0.000000 -0.000001 -0.000000 -0.018082 4.054256 0.511061 -0.018094 -4.054258 -0.511103 0.000004 0.000006 -0.000015 0.000001 0.000002 -0.000000 1.365842 1.819745 8.416334 12.529565 53.503105 45.348829 -0.000030 105.961513 0.000016 -4.684245 8.718327 -49.843879 -5.175639 3.531304 -28.920394 4.637200 -8.634122 -0.225411 -1.273755 0.137308 -2.094863 -0.000002 0.000000 -0.000002 -0.000001 -0.000002 -0.000000 -0.000000 -0.000011 0.000002 -0.000002 -0.000011 0.000008 0.000000 -0.000002 -0.000001 -0.000001 -0.000002 0.000001 0.000001 -0.000013 0.000002 -0.000004 -0.000006 0.000014 -0.000000 0.000001 0.000001 0.000000 -0.000001 -0.000001 0.000001 -0.000013 0.000003 -0.000001 -0.000007 0.000008 0.000001 0.000000 0.000000 -0.000001 -0.000002 0.000000 0.000005 -0.000015 0.000044 0.000004 0.000003 0.000003 0.000000 -0.000000 0.000000 -0.165118 1.509884 1.638660 20.567547 8.041164 2.440800 -16.560965 1.522984 -5.659759 -1.352173 -0.000001 -0.000000 -0.000000 0.000000 -0.000000 -1.901496 5.085839 1.371807 21.260422 -9.556569 -2.997288 -16.003873 -7.446357 4.051991 -0.000020 -0.000002 0.000004 0.000000 0.000000 0.000000 
